<svg xmlns="http://www.w3.org/2000/svg"  viewBox="0 0 100 100" width="100px" height="100px"><path fill="#284b5c" d="M69,82H31c-7.168,0-13-5.832-13-13V31c0-7.168,5.832-13,13-13h38c7.168,0,13,5.832,13,13v38 C82,76.168,76.168,82,69,82z"/><path fill="#2c4454" d="M82,60.5V69c0,5.07-2.9,9.47-7.14,11.61L19.39,25.14C21.53,20.9,25.93,18,31,18h8.5L82,60.5z"/><path fill="#303e4d" d="M74.86,80.61C73.1,81.5,71.11,82,69,82H51.5L18,48.5V31c0-2.11,0.5-4.1,1.39-5.86L74.86,80.61z"/><path fill="#343745" d="M51.5,82H31c-7.18,0-13-5.82-13-13V48.5L51.5,82z"/><path fill="#60bd91" d="M30.5,47.5v-5h-3v15h3v-6c0-0.552,0.448-1,1-1h3c0.552,0,1,0.448,1,1v6h3v-7c0-1.657-1.343-3-3-3 H30.5z"/><path fill="#60bd91" d="M49.5,47.5v6c0,0.552-0.448,1-1,1h-3c-0.552,0-1-0.448-1-1v-6h-3v7c0,1.657,1.343,3,3,3h5 c1.657,0,3-1.343,3-3v-7H49.5z"/><path fill="#60bd91" d="M69.5,47.5v6c0,0.552-0.448,1-1,1h-3c-0.552,0-1-0.448-1-1v-6h-3v7c0,1.657,1.343,3,3,3h5 c1.657,0,3-1.343,3-3v-7H69.5z"/><rect width="3" height="15" x="55.5" y="42.5" fill="#60bd91"/><g><path fill="#1f212b" d="M69,83H31c-7.72,0-14-6.28-14-14V31c0-7.72,6.28-14,14-14h38c7.72,0,14,6.28,14,14v38 C83,76.72,76.72,83,69,83z M31,19c-6.617,0-12,5.383-12,12v38c0,6.617,5.383,12,12,12h38c6.617,0,12-5.383,12-12V31 c0-6.617-5.383-12-12-12H31z"/><path fill="#1f212b" d="M77.5,40c-0.276,0-0.5-0.224-0.5-0.5v-2c0-0.276,0.224-0.5,0.5-0.5s0.5,0.224,0.5,0.5v2 C78,39.776,77.776,40,77.5,40z"/><path fill="#1f212b" d="M77.5,47c-0.276,0-0.5-0.224-0.5-0.5v-4c0-0.276,0.224-0.5,0.5-0.5s0.5,0.224,0.5,0.5v4 C78,46.776,77.776,47,77.5,47z"/><path fill="#1f212b" d="M66.5,78h-33C27.159,78,22,72.841,22,66.5v-33C22,27.159,27.159,22,33.5,22h34 c0.276,0,0.5,0.224,0.5,0.5S67.776,23,67.5,23h-34C27.71,23,23,27.71,23,33.5v33C23,72.29,27.71,77,33.5,77h33 C72.29,77,77,72.29,77,66.5v-17c0-0.276,0.224-0.5,0.5-0.5s0.5,0.224,0.5,0.5v17C78,72.841,72.841,78,66.5,78z"/><path fill="#1f212b" d="M38.5,58h-3c-0.276,0-0.5-0.224-0.5-0.5v-6c0-0.276-0.224-0.5-0.5-0.5h-3 c-0.276,0-0.5,0.224-0.5,0.5v6c0,0.276-0.224,0.5-0.5,0.5h-3c-0.276,0-0.5-0.224-0.5-0.5v-15c0-0.276,0.224-0.5,0.5-0.5h3 c0.276,0,0.5,0.224,0.5,0.5V47h4.5c1.93,0,3.5,1.57,3.5,3.5v7C39,57.776,38.776,58,38.5,58z M36,57h2v-6.5 c0-1.378-1.122-2.5-2.5-2.5h-5c-0.276,0-0.5-0.224-0.5-0.5V43h-2v14h2v-5.5c0-0.827,0.673-1.5,1.5-1.5h3c0.827,0,1.5,0.673,1.5,1.5 V57z"/><path fill="#1f212b" d="M49.5,58h-5c-1.93,0-3.5-1.57-3.5-3.5v-7c0-0.276,0.224-0.5,0.5-0.5h3c0.276,0,0.5,0.224,0.5,0.5v6 c0,0.276,0.224,0.5,0.5,0.5h3c0.276,0,0.5-0.224,0.5-0.5v-6c0-0.276,0.224-0.5,0.5-0.5h3c0.276,0,0.5,0.224,0.5,0.5v7 C53,56.43,51.43,58,49.5,58z M42,48v6.5c0,1.378,1.122,2.5,2.5,2.5h5c1.378,0,2.5-1.122,2.5-2.5V48h-2v5.5 c0,0.827-0.673,1.5-1.5,1.5h-3c-0.827,0-1.5-0.673-1.5-1.5V48H42z"/><path fill="#1f212b" d="M69.5,58h-5c-1.93,0-3.5-1.57-3.5-3.5v-7c0-0.276,0.224-0.5,0.5-0.5h3c0.276,0,0.5,0.224,0.5,0.5v6 c0,0.276,0.224,0.5,0.5,0.5h3c0.276,0,0.5-0.224,0.5-0.5v-6c0-0.276,0.224-0.5,0.5-0.5h3c0.276,0,0.5,0.224,0.5,0.5v7 C73,56.43,71.43,58,69.5,58z M62,48v6.5c0,1.378,1.122,2.5,2.5,2.5h5c1.378,0,2.5-1.122,2.5-2.5V48h-2v5.5 c0,0.827-0.673,1.5-1.5,1.5h-3c-0.827,0-1.5-0.673-1.5-1.5V48H62z"/><path fill="#1f212b" d="M58.5,58h-3c-0.276,0-0.5-0.224-0.5-0.5v-15c0-0.276,0.224-0.5,0.5-0.5h3c0.276,0,0.5,0.224,0.5,0.5 v15C59,57.776,58.776,58,58.5,58z M56,57h2V43h-2V57z"/></g></svg>